<svg width="20" height="20" viewBox="0 0 20 20" fill="none" xmlns="http://www.w3.org/2000/svg">
<path d="M9.99996 0.666504C11.2376 0.666504 12.4246 1.15817 13.2998 2.03334C14.175 2.90851 14.6666 4.09549 14.6666 5.33317C14.6666 6.57085 14.175 7.75783 13.2998 8.633C12.4246 9.50817 11.2376 9.99984 9.99996 9.99984C8.76228 9.99984 7.5753 9.50817 6.70013 8.633C5.82496 7.75783 5.33329 6.57085 5.33329 5.33317C5.33329 4.09549 5.82496 2.90851 6.70013 2.03334C7.5753 1.15817 8.76228 0.666504 9.99996 0.666504ZM9.99996 2.99984C9.38112 2.99984 8.78763 3.24567 8.35004 3.68325C7.91246 4.12084 7.66663 4.71433 7.66663 5.33317C7.66663 5.95201 7.91246 6.5455 8.35004 6.98309C8.78763 7.42067 9.38112 7.6665 9.99996 7.6665C10.6188 7.6665 11.2123 7.42067 11.6499 6.98309C12.0875 6.5455 12.3333 5.95201 12.3333 5.33317C12.3333 4.71433 12.0875 4.12084 11.6499 3.68325C11.2123 3.24567 10.6188 2.99984 9.99996 2.99984ZM9.99996 11.1665C13.115 11.1665 19.3333 12.7182 19.3333 15.8332V19.3332H0.666626V15.8332C0.666626 12.7182 6.88496 11.1665 9.99996 11.1665ZM9.99996 13.3832C6.53496 13.3832 2.88329 15.0865 2.88329 15.8332V17.1165H17.1166V15.8332C17.1166 15.0865 13.465 13.3832 9.99996 13.3832Z" fill="#7D7D7D"/>
</svg>
