<svg width="28" height="28" viewBox="0 0 28 28" fill="none" xmlns="http://www.w3.org/2000/svg">
<path d="M12.7978 2.20833C13.1227 1.90114 13.5529 1.72998 14 1.72998C14.4471 1.72998 14.8773 1.90114 15.2023 2.20833L23.6793 10.2216C24.2043 10.7168 24.5 11.4081 24.5 12.1291V21.8766C24.5 22.5728 24.2234 23.2405 23.7312 23.7327C23.2389 24.225 22.5712 24.5016 21.875 24.5016H18.375C18.0301 24.5016 17.6886 24.4336 17.3701 24.3016C17.0515 24.1696 16.762 23.9761 16.5182 23.7321C16.2744 23.4882 16.0811 23.1986 15.9493 22.8799C15.8175 22.5612 15.7498 22.2197 15.75 21.8748V17.4998C15.75 17.2678 15.6578 17.0452 15.4937 16.8811C15.3296 16.717 15.1071 16.6248 14.875 16.6248H13.125C12.8929 16.6248 12.6704 16.717 12.5063 16.8811C12.3422 17.0452 12.25 17.2678 12.25 17.4998V21.8748C12.25 22.571 11.9734 23.2387 11.4812 23.731C10.9889 24.2233 10.3212 24.4998 9.625 24.4998H6.125C5.42881 24.4998 4.76113 24.2233 4.26884 23.731C3.77656 23.2387 3.5 22.571 3.5 21.8748V12.1273C3.5 11.4063 3.7975 10.7151 4.3225 10.2198L12.7978 2.20483V2.20833ZM14 3.47883L5.523 11.4938C5.43694 11.5754 5.36837 11.6736 5.32144 11.7825C5.27451 11.8914 5.2502 12.0087 5.25 12.1273V21.8748C5.25 22.1069 5.34219 22.3295 5.50628 22.4936C5.67038 22.6576 5.89294 22.7498 6.125 22.7498H9.625C9.85706 22.7498 10.0796 22.6576 10.2437 22.4936C10.4078 22.3295 10.5 22.1069 10.5 21.8748V17.4998C10.5 16.8036 10.7766 16.136 11.2688 15.6437C11.7611 15.1514 12.4288 14.8748 13.125 14.8748H14.875C15.5712 14.8748 16.2389 15.1514 16.7312 15.6437C17.2234 16.136 17.5 16.8036 17.5 17.4998V21.8748C17.5 22.1069 17.5922 22.3295 17.7563 22.4936C17.9204 22.6576 18.1429 22.7498 18.375 22.7498H21.875C22.1071 22.7498 22.3296 22.6576 22.4937 22.4936C22.6578 22.3295 22.75 22.1069 22.75 21.8748V12.1273C22.75 12.0085 22.7258 11.8908 22.6789 11.7816C22.632 11.6724 22.5633 11.5739 22.477 11.4921L14 3.47883Z" fill="#1AB65C"/>
</svg>
